<?xml version="1.0" encoding="utf-8"?>
<!-- Generator: Adobe Illustrator 15.0.0, SVG Export Plug-In . SVG Version: 6.00 Build 0)  -->
<!DOCTYPE svg PUBLIC "-//W3C//DTD SVG 1.1//EN" "http://www.w3.org/Graphics/SVG/1.1/DTD/svg11.dtd">
<svg version="1.1"
	 id="svg4578" sodipodi:version="0.32" inkscape:version="0.45+devel" sodipodi:docname="official-logo-color" inkscape:output_extension="org.inkscape.output.svg.inkscape" xmlns:dc="http://purl.org/dc/elements/1.1/" xmlns:cc="http://web.resource.org/cc/" xmlns:rdf="http://www.w3.org/1999/02/22-rdf-syntax-ns#" xmlns:svg="http://www.w3.org/2000/svg" xmlns:sodipodi="http://sodipodi.sourceforge.net/DTD/sodipodi-0.dtd" xmlns:inkscape="http://www.inkscape.org/namespaces/inkscape"
	 xmlns="http://www.w3.org/2000/svg" xmlns:xlink="http://www.w3.org/1999/xlink" x="0px" y="0px" width="248.4px"
	 height="157.156px" viewBox="72.8 75.424 248.4 157.156" enable-background="new 72.8 75.424 248.4 157.156" xml:space="preserve">
<sodipodi:namedview  inkscape:window-y="276" inkscape:window-x="458" inkscape:window-height="738" inkscape:window-width="774" inkscape:showpageshadow="false" inkscape:current-layer="layer1" inkscape:document-units="px" inkscape:pageshadow="2" inkscape:pageopacity="0.0" width="400px" height="300px" id="base" objecttolerance="10" guidetolerance="10" gridtolerance="10000" borderopacity="1" inkscape:cy="91.428571" bordercolor="#d6d6d6" inkscape:cx="169.28571" pagecolor="#ffffff" inkscape:zoom="1" borderlayer="true">
	</sodipodi:namedview>
<g id="layer1" inkscape:groupmode="layer" inkscape:label="Layer 1">
	<g id="XMLID_1_">
		<g>
			<path fill="#73BA25" d="M318.55,190.72c0,0.19-0.16,0.351-0.359,0.351h-0.16c-0.19,0-0.351-0.16-0.351-0.351v-2.979H316v2.979
				c0,0.19-0.17,0.351-0.37,0.351h-0.149c-0.19,0-0.351-0.16-0.351-0.351v-2.979h-1.26c-0.18,0-0.33-0.13-0.33-0.33v-0.17
				c0-0.2,0.15-0.32,0.33-0.32h4.41c0.17,0,0.29,0.061,0.35,0.16l0.83,1.25l0.83-1.25c0.07-0.09,0.17-0.16,0.35-0.16h0.561v3.83
				c0,0.18-0.17,0.35-0.37,0.35l-0.05-0.029h-0.16c-0.19,0-0.351-0.16-0.351-0.351v-2.5l-0.55,0.84c-0.06,0.08-0.17,0.12-0.27,0.12
				h-0.061c-0.1,0-0.22-0.04-0.279-0.12l-0.561-0.84V190.72z"/>
			<path fill="#73BA25" d="M312.65,218.62v0.81c0,1.78-1.351,3.08-3.221,3.08H285.1c-1.77,0-3.09-1.33-3.09-3.08v-30.52
				c0-1.76,1.37-3.08,3.15-3.08l0.01,0.03h23.25c1.87,0,3.23,1.29,3.23,3.069v0.811c0,1.779-1.36,3.069-3.23,3.069
				c0,0-18.02,0-18.91,0c0,0.801,0,7.2,0,7.99c0.891,0,14.59,0,14.59,0c1.87,0,3.23,1.311,3.23,3.09v0.801
				c0,1.79-1.36,3.079-3.23,3.079c0,0-13.699,0-14.59,0c0,0.801,0,6.99,0,7.78c0.891,0,19.92,0,19.92,0
				C311.31,215.55,312.65,216.86,312.65,218.62z"/>
			<path fill="#FFFFFF" d="M290.56,91.38c7.69,0.27,13.721,6.75,13.46,14.43c-0.14,3.72-1.699,7.16-4.42,9.7
				c-2.72,2.55-6.26,3.87-10,3.74c-7.68-0.28-13.699-6.75-13.449-14.43c0.13-3.72,1.689-7.17,4.42-9.71
				C283.29,92.57,286.84,91.25,290.56,91.38z M300.37,105.52c0.18-5.47-4.101-10.07-9.57-10.26c-2.649-0.1-5.17,0.84-7.1,2.65
				c-1.931,1.8-3.061,4.25-3.141,6.9c-0.18,5.47,4.101,10.07,9.561,10.27c2.66,0.08,5.18-0.86,7.12-2.66
				C299.17,110.61,300.29,108.16,300.37,105.52z"/>
			<path fill="#73BA25" d="M290.8,95.26c5.47,0.19,9.75,4.79,9.57,10.26c-0.08,2.64-1.2,5.09-3.13,6.9
				c-1.94,1.8-4.46,2.74-7.12,2.66c-5.46-0.2-9.74-4.8-9.561-10.27c0.08-2.65,1.21-5.1,3.141-6.9
				C285.63,96.1,288.15,95.16,290.8,95.26z M296.82,103.17c0-1.63-1.971-2.94-4.4-2.94s-4.39,1.31-4.39,2.94
				c0,1.61,1.96,2.93,4.39,2.93S296.82,104.78,296.82,103.17z"/>
			<path fill="#FFFFFF" d="M292.42,100.23c2.43,0,4.4,1.31,4.4,2.94c0,1.61-1.971,2.93-4.4,2.93s-4.39-1.32-4.39-2.93
				C288.03,101.54,289.99,100.23,292.42,100.23z"/>
			<path fill="#73BA25" d="M275.6,208.41v4.89c0,5.601-3.34,9.21-8.55,9.21h-19.87c-1.87,0-3.22-1.31-3.22-3.08v-0.81
				c0-1.771,1.35-3.07,3.22-3.07h18.851c2.05,0,2.109-2.81,2.109-3.12v-2.93c0-0.96-0.38-2.09-2.109-2.09H252.22
				c-3.93,0-8.189-3.22-8.189-8.41v-4.53c0-3.54,3.34-8.64,9.359-8.64v0.04h16.221c1.89,0,3.29,1.33,3.29,3.07v0.81
				c0,1.76-1.391,3.08-3.221,3.08h-15.06c-1.98,0-3.11,0.97-3.11,2.67v2.69c0,1.1,0.92,2.609,2.971,2.609h13.6
				C271.83,200.8,275.6,203.16,275.6,208.41z"/>
			<path fill="#73BA25" d="M234.31,185.83c1.811,0,3.221,1.42,3.221,3.229v24.03c0,5.59-4.391,9.641-10.45,9.641h-11.23
				c-6.06,0-10.449-4.051-10.449-9.641v-24.03c0-1.81,1.43-3.229,3.22-3.229h1.02c1.801,0,3.23,1.45,3.23,3.229V212.2
				c0,1.85,1.49,3.34,3.33,3.34h10.51c1.83,0,3.33-1.49,3.33-3.34V189.06c0-1.779,1.45-3.229,3.229-3.229h0.021H234.31z"/>
			<path fill="#73BA25" d="M198.95,208.41v4.89c0,5.601-3.36,9.21-8.55,9.21h-19.88c-1.88,0-3.23-1.31-3.23-3.08v-0.81
				c0-1.771,1.36-3.07,3.23-3.07h18.85c2.04,0,2.09-2.81,2.09-3.12v-2.93c0-0.96-0.36-2.09-2.09-2.09h-13.81
				c-3.95,0-8.19-3.22-8.19-8.41v-4.53c0-3.54,3.33-8.64,9.36-8.64l0.02,0.04h16.23c1.88,0,3.29,1.33,3.29,3.07v0.81
				c0,1.76-1.39,3.08-3.23,3.08h-15.06c-1.99,0-3.12,0.97-3.12,2.67v2.69c0,1.1,0.92,2.609,2.97,2.609h13.59
				C195.17,200.8,198.95,203.16,198.95,208.41z"/>
			<path fill="#73BA25" d="M312.8,124.64l1.021-0.19c0.279,0.22,0.239,0.67,0.149,1.07c-0.189,0.93-0.64,2.62-0.95,3.42l-0.26,0.66
				c-0.359,0.98-0.72,1.91-1.41,2.47c-1.899,1.73-4.939,3.11-9.699,5.19c-7.36,3.22-19.29,5.25-30.37,5.18
				c-3.971-0.09-7.811-0.53-11.181-0.91c-10.319-1.18-17.779-2.02-19.33,7.36c-1.96,11.76,9.101,26.04,9.211,26.169l-0.011,0.391
				l-0.359,0.09c0,0-17.63-8.12-18.061-8.36l-0.56-0.399l-0.45-0.431c-1.33-1.279-4-4.149-9.42-10.43
				c-10.51-12.15-22.81-13.75-32.29-11.44c-2.31,0.55-5.25,2.24-7.16,4.14c-4.95,4.88-4.39,14.71-4.11,18.29
				c0.33,4.05,0.54,4.35,0.63,4.68l-0.06,0.41l-0.35,0.04l-0.2-0.14l-14.46-7.07l-0.55-2.36c-0.37-1.56-0.8-3.29-1.62-5.46
				c-5.17-13.63-16.79-23.88-29.59-26.09c-8.65-1.49-24.42-1.66-32.77,14.1c-3.49,6.58-3.28,15.15,0.55,22.37
				c3.9,7.391,10.87,12.13,19.12,13.04c8.18,0.891,14.33-1,17.78-5.47c3.48-4.51,4.13-10.65,1.66-15.65
				c-2.65-5.369-6.65-8.22-12.21-8.689c-4.23-0.38-7.37,1.38-8.5,3.18c-0.33,0.561-0.93,1.601-0.94,3.08v0.05
				c0,4.03,3.69,5.13,4.44,5.181c0.23,0,1.34-0.03,2.81-0.4l0.71-0.229l0.49-0.171l0.36-0.069c2.68-0.49,5.26,1.09,6.01,3.7
				c0.13,0.479,0.2,0.96,0.2,1.439c0,1.73-0.88,3.34-2.34,4.32l0.06-0.021l-0.16,0.09l-0.24,0.15c-0.77,0.49-1.48,0.76-2.23,0.99
				c-2.1,0.689-3.96,1.01-5.83,1.01c-6.38-0.01-15.27-5.5-15.39-15.81c-0.06-5.82,2.86-11.12,8-14.53
				c5.92-3.91,16.15-5.24,25.64,0.58c11.68,7.15,14.73,21.149,11.68,30.7c-4.43,13.83-16.89,21.22-33.34,19.75
				c-11.65-1.04-22.47-7.19-28.91-16.45c-2.86-4.101-4.98-8.67-6.12-13.23c-2.63-10.43,0.03-21.51,2.01-26.42
				c6.3-15.61,18.36-29.04,35.81-39.93l1.1-0.69C157.93,74.08,184.2,75,203.43,75.67c22.681,0.79,46.87,8.61,50.21,9.72
				c0.011-0.75,0.141-7.51,0.141-7.51l0.1-0.23l0.26-0.07c1.521,0.21,34.11,5.05,47.841,13.05c1.699,1,2.539,2.04,3.59,3.12
				c3.79,3.92,8.81,20.25,9.34,23.62l-0.2,0.34c-0.2,0.07-0.67,0.42-1.3,0.84c-3.2,2.24-10.69,7.48-20.29,6.62
				c-8.63-0.76-19.9-5.71-33.49-14.66c0.601,1.41,3.43,8.11,3.91,9.24l0.18,0.22c1.971,1.02,20.851,10.64,30.221,10.45
				C301.5,130.27,309.57,126.58,312.8,124.64z M304.02,105.81c0.261-7.68-5.77-14.16-13.46-14.43c-3.72-0.13-7.27,1.19-9.989,3.73
				c-2.73,2.54-4.29,5.99-4.42,9.71c-0.25,7.68,5.77,14.15,13.449,14.43c3.74,0.13,7.28-1.19,10-3.74
				C302.32,112.97,303.88,109.53,304.02,105.81z"/>
			<path fill="#73BA25" d="M149.12,201.6c1.3-0.619,2.92-1.38,5.06-1.38h0.66c3.74,0,6.16,2.23,6.16,5.66V220.9
				c0,0.909-0.74,1.649-1.63,1.649h-0.64c-0.91,0-1.63-0.74-1.63-1.649v-14.48c0-1.36-1.11-2.47-2.46-2.47h-5.43
				c-1.36,0-2.46,1.109-2.46,2.47v14.48c0,0.909-0.74,1.649-1.63,1.649h-0.64c-0.91,0-1.63-0.74-1.63-1.649V201.76
				c0-0.819,0.55-1.399,1.31-1.399h0.63c0.6,0,1.04,0.26,1.28,0.77l0.45,0.82c0.19,0.34,0.29,0.359,0.54,0.359
				C147.62,202.31,148.31,201.97,149.12,201.6z"/>
			<path fill="#73BA25" d="M138.35,205.67v4.43c0,1.891-1.1,3.011-2.92,3.011c0,0-10.86,0-11.37,0c0,0.46,0,3.34,0,3.34
				c0,1.649,0.93,2.51,2.7,2.51h6.3c0.94,0,1.63,0.65,1.63,1.54v0.5c0,0.9-0.69,1.55-1.63,1.55h-7.68c-2.84,0-5.24-2.52-5.24-5.479
				V205.64c0-2.92,2.47-5.279,5.51-5.279l0.01,0.02h7.17C135.87,200.38,138.35,202.76,138.35,205.67z M134.41,209.71
				c0-0.46,0-3.55,0-3.55c0-1.24-0.96-2.2-2.19-2.2h-5.98c-1.24,0-2.19,0.98-2.19,2.2c0,0,0,3.09,0,3.55
				C124.53,209.71,133.93,209.71,134.41,209.71z"/>
			<path fill="#73BA25" d="M100.34,216.48c0,0.939,0.52,1.75,1.29,2.17l-0.92,2.029c-0.17,0-0.36,0.301-0.36,0.58v9.69
				c0,0.89-0.73,1.63-1.63,1.63h-0.64c-0.92,0-1.63-0.73-1.63-1.63v-29.19c0-0.779,0.58-1.399,1.27-1.399h0.73
				c0.62,0,1.12,0.479,1.23,0.729l0.48,0.95c0.12,0.17,0.33,0.27,0.55,0.27l0.91,1.96c-0.77,0.41-1.28,1.221-1.28,2.171V216.48z"/>
			<path fill="#73BA25" d="M108.46,200.23c3.75,0,6.16,2.229,6.16,5.659v11.141c0,3.489-2.36,5.649-6.16,5.649h-0.67
				c-2.15,0-3.77-0.739-5.06-1.33c-0.8-0.369-1.48-0.67-2.02-0.67l0.92-2.029c0.35,0.189,0.75,0.3,1.17,0.3h5.43
				c1.37,0,2.46-1.11,2.46-2.47v-10.04c0-1.381-1.08-2.46-2.46-2.46h-5.43c-0.43,0-0.83,0.109-1.18,0.289l-0.91-1.96
				c0.54,0,1.22-0.319,2-0.699c1.31-0.62,2.92-1.391,5.07-1.391v0.011H108.46z"/>
			<path fill="#73BA25" d="M90.9,205.64v11.521c0,2.96-2.4,5.37-5.34,5.37h-7.44c-2.93,0-5.32-2.41-5.32-5.37V205.64
				c0-2.92,2.47-5.279,5.51-5.279h7.08C88.43,200.36,90.9,202.73,90.9,205.64z M86.98,216.71v-10.5c0-1.22-1.03-2.25-2.24-2.25h-5.8
				c-1.23,0-2.24,1.01-2.24,2.25v10.5c0,1.26,0.96,2.24,2.19,2.24h5.85C85.98,218.95,86.98,217.94,86.98,216.71z"/>
		</g>
		<g>
		</g>
	</g>
</g>
</svg>
